<svg width="53" height="53" viewBox="0 0 53 53" fill="none" xmlns="http://www.w3.org/2000/svg">
<circle cx="26.5" cy="26.5" r="26.5" fill="#EBEFE4"/>
<path d="M20.493 34.6254C20.493 34.6254 19.0355 43.6261 27.0053 44.4457C34.9751 45.2653 33.2254 34.4088 33.2254 34.4088C33.2254 34.4088 28.0386 36.7714 20.493 34.6254Z" fill="white"/>
<path d="M19.0728 33.6064C19.0728 33.6064 14.6798 37.9563 16.1402 40.8158C17.9388 41.8364 19.9236 40.7871 21.8707 38.75C20.7087 36.6887 20.1723 33.8777 19.0728 33.6064Z" fill="white"/>
<path d="M19.724 34.5988C19.724 34.5988 18.4769 37.1438 19.2172 39.4497C19.9575 41.7555 20.7483 39.1796 20.7483 39.1796L19.724 34.5988Z" fill="#C3D6D8"/>
<path d="M22.2173 37.5239C22.2107 37.452 22.2046 37.3838 22.2025 37.3373C22.1688 36.6562 22.0866 36.0689 21.9514 35.5411C21.498 33.7692 20.4187 32.8649 18.9908 33.0598L18.7906 33.0869L18.6319 33.2122C18.5107 33.308 15.6565 35.6052 15.107 39.5934C15.0054 40.3308 15.2932 41.0283 15.8966 41.5072C16.5673 42.039 17.5176 42.203 18.3648 41.9445C18.4252 41.926 18.4852 41.9055 18.544 41.8828C19.3299 41.5812 20.3792 40.7628 21.7516 39.3813C21.7857 39.3468 21.8104 39.3217 21.824 39.3086C22.3345 38.8334 22.2638 38.0455 22.2173 37.5239ZM18.0129 40.501C17.546 40.6802 17.0754 40.5532 16.816 40.3473C16.6253 40.196 16.5435 40.0102 16.5731 39.7957C16.6607 39.1614 16.8189 38.5753 17.0191 38.041C17.5752 38.3632 18.5127 38.9929 19.0582 39.8368C18.5242 40.2581 18.1962 40.4307 18.0129 40.501ZM20.7569 38.2823C20.7409 38.2983 20.7224 38.3168 20.7015 38.3382C20.2501 38.7923 19.8642 39.1528 19.5354 39.4397C18.8884 38.4771 17.8461 37.796 17.2595 37.4655C17.9768 35.9008 18.9986 34.8716 19.3903 34.5136C19.7035 34.5242 20.2111 34.7125 20.5173 35.9082C20.6275 36.3385 20.6953 36.8301 20.7241 37.4109C20.7278 37.4869 20.7352 37.5687 20.743 37.6559C20.7557 37.8046 20.7857 38.1372 20.7569 38.2823Z" fill="#181D1E"/>
<path d="M34.9264 33.6064C34.9264 33.6064 39.3194 37.9563 37.859 40.8158C36.0604 41.8364 34.0755 40.7871 32.1289 38.75C33.2905 36.6887 33.8269 33.8777 34.9264 33.6064Z" fill="white"/>
<path d="M34.2867 34.5988C34.2867 34.5988 35.5337 37.1438 34.7934 39.4497C34.0532 41.7555 33.2628 39.1796 33.2628 39.1796L34.2867 34.5988Z" fill="#C3D6D8"/>
<path d="M38.8926 39.5934C38.3431 35.6052 35.4889 33.308 35.3676 33.2122L35.209 33.0869L35.0088 33.0598C33.5809 32.8649 32.5016 33.7692 32.0482 35.5411C31.913 36.0689 31.8312 36.6562 31.7971 37.3373C31.7946 37.3842 31.7884 37.452 31.7823 37.5239C31.7358 38.0455 31.6651 38.8334 32.1756 39.3086C32.1892 39.3217 32.2138 39.3468 32.248 39.3813C33.6208 40.7632 34.6697 41.5812 35.4556 41.8828C35.5148 41.9055 35.5748 41.926 35.6348 41.9445C36.4819 42.203 37.4322 42.039 38.103 41.5072C38.7064 41.0287 38.9941 40.3312 38.8926 39.5934ZM33.2422 38.2823C33.2135 38.1372 33.243 37.8051 33.2566 37.6559C33.2644 37.5687 33.2718 37.4869 33.2755 37.4109C33.3043 36.8305 33.3721 36.3389 33.4823 35.9082C33.7885 34.7125 34.2957 34.5242 34.6089 34.5136C35.0006 34.8716 36.0224 35.9008 36.7396 37.4655C36.1531 37.796 35.1108 38.4771 34.4638 39.4397C34.135 39.1528 33.749 38.7923 33.2977 38.3382C33.2772 38.3168 33.2583 38.2979 33.2422 38.2823ZM37.1831 40.3473C36.9238 40.5528 36.4532 40.6798 35.9862 40.501C35.8029 40.4307 35.4749 40.2581 34.941 39.8368C35.4864 38.9929 36.4236 38.3632 36.9801 38.041C37.1803 38.5753 37.3389 39.1614 37.4261 39.7957C37.4557 40.0102 37.3739 40.196 37.1831 40.3473Z" fill="#181D1E"/>
<path d="M31.9259 32.708C31.9259 32.708 34.2206 33.5638 33.6616 37.3452C33.1026 41.1267 30.6805 44.4461 27.0051 44.4461C23.3297 44.4461 20.9075 41.1267 20.3485 37.3452C19.7895 33.5638 22.0843 32.708 22.0843 32.708" fill="white"/>
<path d="M32.6433 33.6064L21.0869 33.805C21.0869 33.805 27.0793 36.3784 29.2326 40.979C29.7382 42.0588 29.7045 43.0535 29.3576 43.9433C31.7062 42.8771 33.2327 40.247 33.6619 37.3447C33.7712 36.6065 33.7712 35.9801 33.7009 35.4495C33.3162 34.7918 32.6433 33.6064 32.6433 33.6064Z" fill="#C3D6D8"/>
<path d="M32.3409 32.4194L31.6681 33.4014C31.6718 33.4026 32.0565 33.5678 32.4075 34.0463C32.9488 34.7841 33.1297 35.8873 32.9303 37.2367C32.5875 39.5565 31.4445 41.8911 29.5492 43.0153C30.9438 40.5491 31.3154 38.5926 31.3602 37.3115C31.4194 35.6189 30.9455 34.685 30.9249 34.646L30.3228 34.9588C30.331 34.9748 30.7235 35.7668 30.6824 37.2313C30.1415 37.4368 28.772 37.8795 27.0058 37.8795C25.1825 37.8795 23.8162 37.4081 23.3296 37.2132C23.293 35.7619 23.6876 34.9653 23.6917 34.9571L23.39 34.8026L23.0887 34.646C23.0686 34.685 22.5947 35.6189 22.6534 37.3115C22.6982 38.5931 23.0698 40.5499 24.4653 43.0169C22.568 41.8936 21.4245 39.5577 21.0813 37.2367C20.6246 34.1478 22.2839 33.4264 22.3546 33.3973L22.3435 33.4014L21.2535 32.5099C20.8018 33.2037 18.9776 33.1289 19.6168 37.4529C19.923 39.5248 20.752 41.4234 21.9506 42.7991C23.3107 44.3602 25.0588 45.1855 27.0058 45.1855C28.9528 45.1855 30.7009 44.3602 32.061 42.7991C33.2596 41.4234 34.0886 39.5248 34.3948 37.4529C35.034 33.1293 32.4572 32.463 32.3409 32.4194ZM25.5409 43.4921C24.0727 41.1718 23.5409 39.2881 23.3838 37.9605C24.0682 38.2026 25.3543 38.5585 27.0054 38.5585C28.6273 38.5585 29.9192 38.2153 30.6269 37.9745C30.4617 39.3744 29.9023 41.2339 28.4728 43.4917C28.0165 43.6306 27.5274 43.7062 27.0054 43.7062C26.4846 43.7058 25.9963 43.6306 25.5409 43.4921Z" fill="#181D1E"/>
<path d="M28.55 40.8455C27.5278 41.0239 26.4825 41.0239 25.4607 40.8455C25.4607 40.5603 25.4607 40.275 25.4607 39.9897C26.4829 40.1681 27.5282 40.1681 28.55 39.9897C28.55 40.275 28.55 40.5603 28.55 40.8455Z" fill="#414BF4"/>
<path d="M20.0919 18.2839L21.5424 23.0115L32.7346 21.898L33.2065 18.0492C33.2065 18.0492 27.3658 15.5193 20.0919 18.2839Z" fill="#414BF4"/>
<path d="M26.989 16.9922C26.989 16.9922 16.5823 16.9593 15.8428 23.0121C15.1034 29.0649 16.2214 31.7135 17.78 32.3157C19.3386 32.9178 24.2602 34.3737 26.8888 34.409C29.5173 34.4448 38.2175 33.3539 38.157 30.4459C38.0966 27.5375 37.7333 21.2706 37.7333 21.2706C37.7333 21.2706 34.1306 16.9158 26.989 16.9922Z" fill="white"/>
<path d="M16.2012 30.4967C16.5933 31.4959 17.1506 32.0725 17.7799 32.3155C19.3385 32.9176 24.2602 34.3735 26.8887 34.4088C29.5172 34.4446 38.2174 33.3537 38.157 30.4457C38.1204 28.6824 37.9724 25.6844 37.8614 23.5972C35.7323 25.8796 29.012 31.6373 16.2012 30.4967Z" fill="#C3D6D8"/>
<path d="M27 13.8665C28.1229 13.8665 29.0333 12.9561 29.0333 11.8332C29.0333 10.7102 28.1229 9.7998 27 9.7998C25.877 9.7998 24.9666 10.7102 24.9666 11.8332C24.9666 12.9561 25.877 13.8665 27 13.8665Z" fill="#414BF4"/>
<path d="M13.0119 28.7733L14.0284 28.978C14.2627 29.0252 14.481 28.846 14.481 28.6072V23.0419C14.481 22.8031 14.2623 22.6243 14.0284 22.6712L13.0119 22.8759C12.4234 22.9943 12 23.5117 12 24.1123V27.5369C12 28.1374 12.4234 28.6545 13.0119 28.7733Z" fill="#181D1E"/>
<path d="M34.4647 17.634C32.3117 16.837 30.0609 16.3972 27.7999 16.313V14.5509C28.9738 14.2048 29.8332 13.1181 29.8332 11.8332C29.8332 10.2709 28.5623 9 27 9C25.4377 9 24.1668 10.2709 24.1668 11.8332C24.1668 13.1177 25.0263 14.2048 26.2001 14.5509V16.313C23.9391 16.3968 21.6883 16.837 19.5354 17.634C16.8846 18.6151 15.1037 21.1861 15.1037 24.0312V29.4962C15.1037 30.9953 15.9368 32.3492 17.278 33.029C20.3221 34.5724 23.6612 35.3439 27.0004 35.3439C30.3396 35.3439 33.6788 34.5724 36.7228 33.029C38.064 32.3492 38.8972 30.9953 38.8972 29.4962V24.0312C38.8963 21.1861 37.1154 18.6151 34.4647 17.634ZM25.7661 11.8332C25.7661 11.153 26.3198 10.5997 27 10.5997C27.6803 10.5997 28.2339 11.1534 28.2339 11.8332C28.2339 12.5135 27.6803 13.0671 27 13.0671C26.3198 13.0671 25.7661 12.5139 25.7661 11.8332ZM26.9967 17.8975C26.9979 17.8975 26.9988 17.8975 27 17.8975C27.0012 17.8975 27.0021 17.8975 27.0033 17.8975C28.9285 17.8979 30.8546 18.1774 32.7174 18.7356L31.9603 21.7003C31.9566 21.7147 31.9545 21.7291 31.9516 21.7435C29.4193 21.2909 27 21.2708 27 21.2708C27 21.2708 24.5807 21.2909 22.0488 21.7439C22.0459 21.7295 22.0438 21.7151 22.0401 21.7007L21.283 18.736C23.1454 18.1774 25.0706 17.8979 26.9967 17.8975ZM37.2966 29.4962C37.2966 30.3894 36.7993 31.1962 35.9986 31.6023C30.3638 34.4594 23.6358 34.4594 18.001 31.6023C17.2003 31.1962 16.703 30.3894 16.703 29.4962V24.0312C16.703 21.9699 17.9213 20.0985 19.7676 19.2674L20.4869 22.083C19.7803 22.2679 19.103 22.4944 18.5086 22.7731C18.0651 22.9811 17.7803 23.425 17.7803 23.9149V29.4613C17.7803 29.8982 18.0059 30.3051 18.3787 30.5324C19.5711 31.2587 22.5206 32.7142 27 32.7142C31.4794 32.7142 34.4289 31.2583 35.6213 30.5324C35.9945 30.3051 36.2197 29.8978 36.2197 29.4613V23.9145C36.2197 23.4246 35.9349 22.9807 35.4914 22.7727C34.8971 22.4944 34.2201 22.2675 33.5131 22.0826L34.2324 19.267C36.0788 20.0985 37.297 21.9699 37.297 24.0308L37.2966 29.4962Z" fill="#181D1E"/>
<path d="M35.1092 23.5876C32.2666 22.2555 27.2237 22.1733 26.9997 22.1704C26.7716 22.1733 21.7373 22.2534 18.8901 23.5876C18.7623 23.6476 18.6797 23.7759 18.6797 23.9144V24.8252C21.9223 26.4586 27.465 28.3868 35.3201 28.1833V23.9144C35.3201 23.7755 35.2371 23.6472 35.1092 23.5876Z" fill="#222C2D"/>
<path d="M23.7056 26.9923C23.7056 28.0461 22.8511 28.9007 21.7972 28.9007C20.7434 28.9007 19.8888 28.0461 19.8888 26.9923C19.8888 25.9384 20.7434 25.0839 21.7972 25.0839C22.8511 25.0839 23.7056 25.9384 23.7056 26.9923Z" fill="#E3E6EA"/>
<path d="M31.964 27.139C32.3343 27.139 32.6537 27.3589 32.7979 27.675C32.9019 27.9027 33.121 28.0556 33.3717 28.0556C33.8255 28.0556 34.1247 27.5874 33.9394 27.1731C33.6015 26.4184 32.8444 25.8923 31.964 25.8923C31.0836 25.8923 30.326 26.418 29.9886 27.1731C29.8032 27.587 30.1024 28.0556 30.5562 28.0556C30.8065 28.0556 31.0256 27.9027 31.13 27.675C31.2743 27.3589 31.5936 27.139 31.964 27.139Z" fill="#E3E6EA"/>
<path d="M40.9876 28.7732L39.9711 28.9779C39.7368 29.0251 39.5186 28.8459 39.5186 28.6071V23.0418C39.5186 22.803 39.7372 22.6242 39.9711 22.6711L40.9876 22.8758C41.5762 22.9941 41.9995 23.5116 41.9995 24.1121V27.5368C41.9995 28.1373 41.5762 28.6544 40.9876 28.7732Z" fill="#181D1E"/>
</svg>
