<svg width="32" height="28" viewBox="0 0 32 28" fill="none" xmlns="http://www.w3.org/2000/svg">
<path d="M28.7638 27.5476H3.36711C2.5059 27.5476 1.80762 26.8494 1.80762 25.9881V14.8493C1.80762 13.9881 2.5059 13.2898 3.36711 13.2898H28.7638C29.625 13.2898 30.3233 13.9881 30.3233 14.8493V25.9881C30.3233 26.8497 29.625 27.5476 28.7638 27.5476Z" fill="black"/>
<path d="M19.0521 9.52533H13.1744C11.6098 9.52533 10.3367 8.25257 10.3367 6.68798V3.20439C10.3367 1.6398 11.6094 0.366699 13.1744 0.366699H19.0521C20.6167 0.366699 21.8898 1.63946 21.8898 3.20439V6.68798C21.8898 8.25257 20.6167 9.52533 19.0521 9.52533ZM13.1747 1.6483C12.3166 1.6483 11.6186 2.34625 11.6186 3.20439V6.68798C11.6186 7.54612 12.3166 8.24407 13.1747 8.24407H19.0525C19.9106 8.24407 20.6085 7.54612 20.6085 6.68798V3.20439C20.6085 2.34625 19.9106 1.6483 19.0525 1.6483H13.1747Z" fill="black"/>
<path d="M18.1667 18.6995V20.4188C18.1667 21.5219 17.264 22.4246 16.161 22.4246C15.058 22.4246 14.1553 21.5219 14.1553 20.4188V18.6995C14.1553 17.5964 15.058 16.6937 16.161 16.6937C17.2644 16.6937 18.1667 17.5964 18.1667 18.6995Z" fill="white"/>
<path opacity="0.11" d="M18.6651 20.5612L27.1676 22.9829C28.8254 23.455 30.4743 22.2101 30.4743 20.4867V17.8936C30.4743 16.4395 29.2801 15.2691 27.8264 15.2984L19.3239 15.4695C16.3437 15.5297 15.7985 19.7445 18.6651 20.5612Z" fill="black"/>
<path d="M29.9346 19.5593H2.19648C1.31078 19.5593 0.592773 18.8413 0.592773 17.9556V5.69025C0.592773 4.80456 1.31078 4.08655 2.19648 4.08655H29.9346C30.8203 4.08655 31.5383 4.80456 31.5383 5.69025V17.9556C31.5387 18.8413 30.8206 19.5593 29.9346 19.5593Z" fill="black"/>
<path opacity="0.11" d="M11.76 8.41574L27.9889 16.5302C28.9328 17.0019 30.0433 16.3159 30.0433 15.2605V7.20319C30.0433 6.42225 29.4137 5.78826 28.6328 5.78383C25.5026 5.76615 17.8231 5.72601 12.394 5.72669C10.8964 5.72669 10.4206 7.74569 11.76 8.41574Z" fill="black"/>
</svg>
